PathFileType	3	(X/Y/Z)	results
DataRate	CameraRate	NumFrames	NumMarkers	Units	OrigDataRate	OrigDataStartFrame	OrigNumFrames
30.0	30.0	4	85	mm	30.0	299	478
Frame#	Time	head			nose			neck			shoulder_r			elbow_r			wrist_r			shoulder_l			elbow_l			wrist_l			hip_r			knee_r			ankle_r			hip_l			knee_l			ankle_l			heel_r			heel_l			mtoe_r			ltoe_r			mtoe_l			ltoe_l			asis_l			asis_r			psi_r			psi_l			mhnd_r			lhnd_r			mhnd_l			lhnd_l			l_lat_knee			r_med_wrist			l_lat_ankle			r_med_ankle			r_lat_knee			xiphoid			l_med_ankle			r_med_knee			l_med_elbow			navel			r_lat_elbow			r_lat_wrist			l_med_wrist			l_lat_elbow			l_med_knee			r_med_elbow			r_lat_ankle			l_lat_wrist			chin			T10			r_eye			l_eye			l_ear			r_ear			spinal_cord_8			spinal_cord_12			spinal_cord_27			spinal_cord_33			up_arm_r_0			up_arm_r_5			up_arm_l_0			up_arm_l_5			front_torso_11			front_torso_7			front_torso_4			front_torso_1			front_torso_10			thigh_r_2			thigh_r_3			thigh_l_1			thigh_l_5			shank_l_0			shank_l_4			shank_r_1			shank_r_2			foot_r_1			foot_r_3			foot_r_5			foot_r_6			foot_r_7			foot_l_1			foot_l_7			foot_l_0			foot_l_4			foot_l_5			foot_l_6			
		X1	Y1	Z1	X2	Y2	Z2	X3	Y3	Z3	X4	Y4	Z4	X5	Y5	Z5	X6	Y6	Z6	X7	Y7	Z7	X8	Y8	Z8	X9	Y9	Z9	X10	Y10	Z10	X11	Y11	Z11	X12	Y12	Z12	X13	Y13	Z13	X14	Y14	Z14	X15	Y15	Z15	X16	Y16	Z16	X17	Y17	Z17	X18	Y18	Z18	X19	Y19	Z19	X20	Y20	Z20	X21	Y21	Z21	X22	Y22	Z22	X23	Y23	Z23	X24	Y24	Z24	X25	Y25	Z25	X26	Y26	Z26	X27	Y27	Z27	X28	Y28	Z28	X29	Y29	Z29	X30	Y30	Z30	X31	Y31	Z31	X32	Y32	Z32	X33	Y33	Z33	X34	Y34	Z34	X35	Y35	Z35	X36	Y36	Z36	X37	Y37	Z37	X38	Y38	Z38	X39	Y39	Z39	X40	Y40	Z40	X41	Y41	Z41	X42	Y42	Z42	X43	Y43	Z43	X44	Y44	Z44	X45	Y45	Z45	X46	Y46	Z46	X47	Y47	Z47	X48	Y48	Z48	X49	Y49	Z49	X50	Y50	Z50	X51	Y51	Z51	X52	Y52	Z52	X53	Y53	Z53	X54	Y54	Z54	X55	Y55	Z55	X56	Y56	Z56	X57	Y57	Z57	X58	Y58	Z58	X59	Y59	Z59	X60	Y60	Z60	X61	Y61	Z61	X62	Y62	Z62	X63	Y63	Z63	X64	Y64	Z64	X65	Y65	Z65	X66	Y66	Z66	X67	Y67	Z67	X68	Y68	Z68	X69	Y69	Z69	X70	Y70	Z70	X71	Y71	Z71	X72	Y72	Z72	X73	Y73	Z73	X74	Y74	Z74	X75	Y75	Z75	X76	Y76	Z76	X77	Y77	Z77	X78	Y78	Z78	X79	Y79	Z79	X80	Y80	Z80	X81	Y81	Z81	X82	Y82	Z82	X83	Y83	Z83	X84	Y84	Z84	X85	Y85	Z85	
299	9.966666666666667	-34.817035458937305	2056.9932459815177	1767.1646086555036	-39.68143336770905	1836.2386680969728	1613.6050130046744	-31.47137018889569	1656.6644210702593	1811.7818943901523	155.51723038448984	1637.2815875637298	1765.5311379933846	255.37295832425283	1345.1892182902957	1722.602169228958	152.6463476625962	1432.4859523832451	1467.0551519163612	-194.1391305782172	1596.3741738829997	1883.5014124335403	-283.6462844712028	1308.9428515701431	1796.3409755831342	-113.05161559782273	1173.4149699954366	1589.9819612242352	92.8668147577704	1127.198974205367	1754.8251662611367	105.03687314669291	653.8283232137334	1629.9871784874179	155.36104892486276	160.16770941555964	1643.0009708848222	-95.60053577132612	1096.123216183038	1807.1945586638844	-64.16470398291801	627.2619235724501	1941.0170879978684	-13.591333365052694	166.1913311981466	2072.08086258699	155.9325359146824	97.60886422162442	1656.5196899110877	-2.182415211841562	97.31659332062095	2106.1068119789757	106.1729753648069	57.593417552248326	1412.3643617646646	191.57208943008422	65.7770615622915	1463.6980865484693	-97.74951247918695	85.76053155184643	1876.5741398805733	-146.1219739268591	57.61309442005859	1968.5452110250092	-158.6052901737939	1151.9967078635154	1780.0347298138063	118.71901918226392	1194.5037553242926	1706.5028333815426	59.94729266763661	1199.1977389033723	1866.63598104934	-35.583695534084	1183.321888358084	1887.0499454015905	129.59720762419826	1423.6076015048397	1397.9783844497736	126.17131642090787	1477.0570802137167	1397.301073620881	-90.73711753905127	1117.366314358185	1543.3426196938055	-52.125728088000585	1151.754887138956	1529.8395092940364	-120.6177735934535	623.8813070479579	1969.8639098199449	165.8278279415174	1398.8651424065797	1462.9016748184188	-61.249381836688485	155.02828682868207	2119.738636867095	109.5874301672334	143.23496142100322	1638.924197378665	154.45687835531575	649.8350979881793	1606.7602411173657	-44.33273206515128	1476.0370792293602	1700.812603062199	7.961628397671588	144.82109517488917	2040.8273978259297	55.03821043175799	642.8760145551029	1643.5619646785728	-273.90748136115553	1304.5937717082772	1838.0961989379555	-39.34269611622248	1237.6496666024734	1673.4447895324954	293.827743777287	1368.8665861095787	1707.395895975279	139.31026353431074	1460.5518358858076	1492.3796760563782	-150.9371336263374	1155.9147462224867	1588.7586187437817	-301.158132146853	1338.6557639778803	1763.395226382498	-30.456821779261638	613.5069808844806	1890.2346910524427	215.69143678240025	1336.805680723706	1739.4701725449809	214.31929808572443	142.22709491413045	1623.2289690705006	-95.25970045723922	1209.0452523675337	1595.3512855321464	-38.17205879455425	1740.5941470665955	1638.5662689997334	3.71083868226345	1479.9782479059586	1909.418121677894	1.8193377411057226	1876.3213654661618	1613.1246882774706	-85.46577423145149	1875.4593739954034	1615.0671605046934	-148.79514671071348	1869.042111216833	1745.3534670796807	67.79601435660821	1867.2575049105885	1743.8018534861874	-22.646416885167767	1719.1161430769198	1867.1294895468347	-4.3967863514361385	1588.9939321295806	1915.6231448903316	21.536190337953784	1316.1533407384693	1880.8162817097846	0.863905127395155	1470.0193829588297	1895.0597164439337	200.2667004879029	1499.4610738294682	1689.8241183982927	238.49704334943766	1464.7620311851713	1781.5699250458642	-230.83723912490532	1552.140460202864	1839.7745442166567	-264.5143241528949	1376.3409172617528	1868.4840124408822	23.813317767743182	1269.5695997752566	1704.3352594971066	-46.056913207270696	1382.5943999238225	1663.0794544491796	-121.60066861380184	1521.2827111689658	1714.1805953615176	-112.68286597082094	1298.4732680430457	1732.6409748451724	38.29893421698242	1576.295171582316	1670.097938797426	78.15534874167545	868.1881228160196	1693.7776689811485	191.45821767186249	838.4591719727998	1640.6754821773527	-23.82110578609595	755.4024290858458	1871.114479276359	-207.59377485010998	972.247161559433	1886.8318925983847	-99.89199733673655	281.11361889938024	2081.1360265109934	-0.043291204726708665	442.5578077032224	1951.4921119347227	198.80086919897894	449.0827848688187	1617.290471927201	80.38582679470335	391.19278197865833	1644.294052559453	136.18716293068067	53.75847001024923	1427.8260882586667	166.01656364063768	59.83473185155924	1440.5285251400849	109.15959921345969	80.01112152342668	1503.878993652352	151.73824131892079	92.00747589603425	1509.477585416047	189.63453570914578	81.011160848596	1517.3732781848173	-130.88134181164494	63.15695460470716	1924.7004618997796	-106.14645803431992	97.66295650692251	2038.9817343384257	-141.6706184017161	60.396707685377336	1939.473238987933	-117.31968141550591	66.55047146626892	1907.1933309660355	-100.21855002075638	85.30549430667253	1969.13545654699	-59.264297115132244	106.39681943753143	1984.932224492675	
300	10.0	-55.687029984899056	2051.529141482581	1788.1957502957462	-52.85556010334582	1836.8848865554799	1626.1567980480104	-45.17279876558905	1652.7980113398062	1824.3064347078125	146.79582774044613	1641.9524997251078	1787.5981019459691	247.14405502083565	1351.2090695316288	1737.2939666255168	144.68480741677777	1443.3113485032864	1483.3313174675575	-204.59750366782387	1587.0959367585388	1888.178203920361	-295.5181768063986	1298.5792774413737	1806.2220821905894	-104.81046714277382	1169.4464920961746	1613.8430714769272	90.07687676755258	1125.0639079259365	1771.020259867028	107.37612474154277	654.240203789814	1637.398573602644	156.25365081979416	160.32582148335422	1645.288660497151	-98.00930665391516	1093.4498953188895	1824.4275629779333	-63.35956237591142	623.9969001567051	1955.0386556674048	-12.61101904883783	160.00547931948174	2075.2801489932363	156.65153637089418	97.8618824791194	1658.2367663140496	-1.386327819469759	90.05436339257488	2107.5096483677753	106.51526113810318	57.25352465104105	1414.2564612055378	191.9893257440469	64.96075577146182	1465.5391569302374	-97.95657729532005	86.33742835812765	1878.1360851254858	-146.62663302064166	56.96553460627565	1969.5656684351202	-161.20683407112432	1149.591817349528	1798.2883286336378	115.58192840349932	1192.855372105939	1723.196336822408	57.9641893312212	1195.926364438307	1883.7875552985156	-37.41771638930143	1179.8396985669892	1904.7268370477661	121.83022327196252	1435.7564943922162	1414.032833087372	118.20460512120522	1489.1955690585683	1414.435879704231	-76.84660978923891	1114.190451461019	1569.3525167940802	-38.796572015311085	1150.1003654347278	1558.470420143575	-119.15190442376897	620.3730340768542	1985.2096349084015	158.00247799263482	1409.8313856064353	1478.52575894724	-60.75290030114236	147.51712932145895	2122.1156801300644	110.45396417890068	143.56895536017043	1640.7988551158323	156.4622261351207	651.44303822976	1613.3209082942892	-54.40614711018726	1470.4287752736689	1715.8534869256061	9.361083505930429	139.48164989440164	2043.752457307054	57.84138031125905	642.2462311359269	1651.7424483371303	-287.6045899520737	1295.3887190617581	1848.4648678397095	-43.43827374968952	1231.9082207015808	1691.5613693628752	285.55610146123576	1375.3287782566438	1722.6866617188932	131.1841499721225	1470.8056824979851	1509.1899780346566	-141.75175252769102	1150.3824418155868	1609.9739247717669	-311.11053006523764	1327.524056929687	1771.6674497459992	-31.023404495464785	610.385083369657	1903.2886687399814	207.47939337808452	1342.3342126462135	1753.9489335094747	215.26027359696073	142.43324822476146	1625.617688503685	-88.94185675957195	1205.8061571361254	1620.2509472948038	-51.588933067465554	1740.353446920885	1647.4474939879697	-4.3858000108790804	1478.4118301330027	1923.8780422280993	-11.676351087391346	1877.2104372495899	1628.8568071029724	-98.96153730470257	1875.7367893895612	1627.3298399438709	-167.28117717577834	1863.8704871837813	1754.6794769319108	49.212576428321384	1863.4796447458293	1761.580583328593	-37.43308871007038	1716.1933346932155	1878.7360547433357	-15.288317940643624	1587.251945109879	1928.7380605521353	17.443406265295316	1314.740257091842	1897.2414029650267	-7.114778347785461	1468.1909341112953	1909.6817827096997	191.76952691633642	1506.1651559838263	1708.4291335391035	230.07257948863247	1469.225108674963	1799.265165936042	-240.22818738305446	1542.1184966800913	1844.3273674075606	-278.20448924772876	1367.8933027603334	1876.9960254808543	19.166073339490964	1265.87611786743	1721.3718213180014	-54.05744552917483	1376.4767247948748	1679.3680345000414	-132.6962754619696	1513.8166848754747	1729.4310253351314	-117.74978506013521	1291.5827376371255	1750.7156648733676	25.253065960619047	1572.3900510240553	1682.9692053307929	78.32724135353811	866.9735741386015	1705.5896021666254	191.10989149337695	840.0033381089535	1649.9670072493186	-24.804515029906575	752.3762723159211	1884.7478726186703	-208.02480237636138	969.1964501303652	1906.2049408057285	-99.41124684995225	274.38846110455967	2086.1974168638326	1.2933113779303866	439.30048058087755	1961.6817448149059	200.62998485138021	449.3783592230696	1622.9427443063273	81.91912845142303	391.5359696822416	1648.721778698398	136.5013591454829	53.2409098649137	1429.7275992675754	166.38151818955086	59.129356035480626	1442.3991542078068	109.7030927011129	80.01881010444394	1505.67845380602	152.37789382645028	91.69593469926869	1511.219538683955	190.18663072678507	80.428226464174	1519.1522685143455	-131.41541193707275	63.268770152644194	1925.8133970236113	-105.54295479279605	94.3563607507318	2040.8215078031246	-142.21300728642305	60.37701723113155	1940.5549062747566	-117.8413934003873	66.8010816010093	1908.34333636205	-100.1234457642701	83.62231609224891	1970.6662607154997	-58.662220219214554	103.40986158063706	1986.823380638625	
301	10.033333333333333	-74.26659315075577	2048.676399519402	1803.3614992683622	-67.25376501096713	1836.5050708392155	1638.222336838578	-57.6726088453846	1646.3897842312326	1836.7110979015404	136.55162483875552	1645.2918623834255	1810.9217024246375	237.67281174317097	1356.785223671551	1750.3375466779114	133.79065263190014	1451.7835746043913	1498.0251119524053	-215.36522822486015	1582.6840734177895	1883.6733756214473	-301.9542093456303	1287.8874127982942	1821.8468875070914	-104.26275039669447	1166.8814647942236	1631.2424852872073	85.86052574744483	1126.5898520365995	1780.3184236431628	109.16747017586992	655.0128391673538	1650.581877860446	157.80838987425076	161.013405318702	1649.4402281717178	-101.4440590944366	1090.6591390686322	1833.7428990788342	-61.13098924385979	623.1853429052334	1969.052272183048	-10.228542628259534	156.37900937554832	2077.782479037949	158.33567374518304	98.5776566585104	1661.387276241412	0.7058657334408392	86.18382433501768	2108.628689222772	104.67769969483906	58.79429575454792	1418.0209266436264	190.8761173233472	65.70688827515842	1468.192441226924	-94.95978040597042	81.75977228967885	1878.888897030449	-145.45570445108964	57.17411757676061	1970.7396368653358	-164.8951887729469	1148.957436208514	1813.6340665378812	110.78986606616634	1198.2790410362252	1738.217282781567	55.72049924824008	1187.3374230548914	1899.358277365722	-39.362098553400266	1169.600430232346	1920.325894274018	110.91032993663157	1445.08192973941	1428.6474025355697	106.69236563305654	1498.4641220408093	1429.9093759808604	-72.69370277721407	1112.3677005439733	1588.274339639329	-37.63490820421124	1150.6569871451745	1575.6031605952735	-114.7493986616004	620.3278061498622	2003.1861224640836	147.47144185584648	1418.5348071155536	1492.6662758365173	-61.75445232996228	141.36273345003798	2120.052547405457	111.97235750124257	144.3598998965895	1644.9367734431041	157.60363355990648	652.9358953768875	1625.084135771932	-63.08751915782812	1462.1276978338697	1731.2407365176514	14.693177991300377	137.3795696954601	2047.5182205601786	60.01525700392363	642.262168819264	1665.6975270799658	-292.3792414043809	1287.3253531744688	1863.8619031202684	-46.81674811410655	1223.5519081171826	1710.7636579708537	275.8294778378445	1381.5415583590877	1736.1315006857176	120.02706849268948	1478.7097926102183	1524.3389679054953	-139.68204202519175	1144.9398993335826	1628.5763343371307	-319.56434384672286	1314.4197297183405	1786.3382451102902	-32.9916438126377	608.2262164697219	1915.1710248604318	198.21684005828686	1347.194315140072	1767.090969069134	216.68277313470506	143.44383390495184	1629.0934838476999	-91.14484999013384	1204.546248433304	1636.1601750042837	-64.33090054835922	1739.7103596187076	1658.1084540728434	-12.7029039401099	1474.5985644749	1938.9565229475868	-26.80069166076461	1877.5073432886547	1641.6179006157527	-114.04228258866291	1874.515958432366	1639.839297590382	-182.4444526422917	1859.5870716183588	1766.8219099102857	34.0053080910632	1862.9162618303221	1774.2878959743143	-51.21664769396502	1710.8156552672124	1890.0878847934548	-26.040352310339625	1583.230609207742	1942.094457241316	12.734762595751459	1311.0491663851249	1914.8955976675936	-15.239041001669879	1464.0904995990736	1924.9352389859084	181.3277779905501	1512.3216431290473	1727.0016285635324	220.7031064924796	1472.6758114551567	1816.224199975734	-251.46713230376983	1534.4362539580916	1843.8712143715977	-283.755433954484	1361.554602953767	1887.8400583697667	15.08645243415648	1259.396026053261	1739.8321689297454	-60.72106837317366	1367.6289977963559	1696.2737060094091	-142.29813225579417	1503.95948339594	1744.3550392268492	-122.29448206369217	1282.4911175293669	1769.1739364651226	14.16732655207846	1565.3076381347225	1696.4749963477025	77.48881387216748	867.7785120521567	1717.2593241438683	189.53400846840174	842.4052116171105	1659.4383689258862	-26.933186039218654	749.8494242635995	1893.955569434012	-206.1962306396844	968.753217253819	1925.3714767590468	-100.11722999838499	268.6340576947998	2085.2497955470812	6.794898901476554	439.64169086840457	1974.9424028125613	202.21291199657486	450.3950610197938	1631.9341056700737	83.6293795047257	392.16139503306437	1657.4165317063107	134.8291411032071	54.50735804831383	1433.091958796909	164.920344949638	60.126685827304556	1445.3805150095225	109.24976579986911	81.37949874707128	1509.428836805764	152.08895460326966	92.69314379628406	1514.429121785809	189.9032242518168	81.09912071576971	1521.8486687522611	-129.75717930559173	61.61235577445134	1926.9306009386087	-102.81146007951415	94.15979503077568	2041.2865377595483	-140.7508060628184	59.64011959911424	1941.6789178080169	-115.94647862229272	64.01503021938817	1909.4541617970347	-97.65310539579885	81.43842039703244	1971.4445196676345	-55.30118680226513	99.47301254503296	1987.3410973453997	
302	10.066666666666666	-91.07152427591782	2048.2170017271205	1813.9504781716864	-80.1071850682145	1835.5936184808115	1649.6097479704479	-69.52721702422566	1642.4797509232733	1847.8636583910668	124.78175741522796	1646.1404540673002	1833.0383068026367	229.21253768926837	1360.6764269808557	1764.2159534552668	117.62378391173519	1460.9622295609834	1517.2980273949502	-224.5834944574681	1582.2561868467935	1872.5885477076083	-304.0911102624879	1280.7165347692285	1841.3217178325485	-109.305221061513	1164.9506058336458	1644.5703579765382	83.10116318113283	1124.9403061525693	1795.868064064071	111.85506435341856	654.3475372482106	1663.7482579621098	160.70564122639644	160.40385764490122	1657.752793424209	-104.8916156733792	1089.26281293548	1846.9956475103452	-59.07066805434617	621.6735234316493	1979.83930844187	-6.346665333124606	152.8586754926488	2078.60310680228	161.4682277974623	97.80904497768132	1669.0686688611547	5.0530460879554155	82.38234889639745	2108.1319958935255	102.00255546147208	60.899886673371554	1426.6008937910435	189.34447680482882	65.82256023319505	1474.9980845532257	-91.14775807326636	79.47449470222107	1878.5915640148205	-141.11168638754157	53.23462987764873	1970.2754040982481	-167.79435976150458	1148.320879328777	1827.3871791071804	108.8527195591975	1197.2126130793727	1755.286185280753	52.28996499842029	1183.7310691690714	1915.7158492199367	-43.08430721998039	1166.2331324500776	1935.5277821720008	93.0655716729911	1455.810460935579	1448.3629763241784	88.16033337879853	1509.0738712358311	1451.1896378197616	-76.03549110325523	1110.7108381870728	1602.5490601039053	-45.17637010940967	1150.876387164796	1585.514076965881	-112.21686463940816	618.1840405248544	2014.7178334280459	131.61080162499806	1428.0678313598335	1510.6886733942317	-57.65497492017609	136.8080475498928	2120.757600074236	114.83677299679687	143.7665857558732	1653.5325656504217	161.0977748863423	652.5509653734763	1639.7986321125204	-70.27442396927336	1456.970865572462	1744.4628363182715	18.507247127945035	134.57005719845372	2047.8491528406714	62.18611714459196	641.4142874947057	1676.9379051210494	-291.104039717762	1283.8583837582894	1882.2939308880868	-48.773208224859644	1218.5834013454735	1726.8114682112803	266.6384841258539	1386.354889153394	1749.7061591378601	104.1764959931718	1486.970487660764	1544.6771697815348	-142.85679399452923	1140.1203702863522	1645.4749195295203	-325.5858976644886	1303.702089884021	1805.4806417638274	-31.70535222481882	607.0300939253339	1925.4378121417556	190.2977124471937	1350.0837074846152	1781.6190296180905	219.39388941947325	143.04742227735835	1636.6977103346367	-99.10964319220591	1203.7699988625666	1646.5713143942828	-75.8057212287635	1738.9253791740086	1669.857361008627	-21.613182434147816	1472.8505841988913	1952.3567948794282	-40.29593899988658	1877.2168895298303	1653.035435715522	-127.47336084226806	1872.8954919215012	1650.883775115604	-196.20626210311514	1857.379523769982	1777.6171778858507	20.132741628865304	1864.0198261597282	1786.0234389649036	-64.8191770108108	1707.624631344871	1900.5460329211319	-37.287725520207864	1581.2003905940423	1954.168825970474	7.476184243422265	1309.6236713103563	1930.3297143914624	-23.82689009703567	1462.1337701163611	1938.4392801275997	169.84569988825407	1515.6988354526404	1745.3867972978992	211.82329433358439	1474.881484905681	1832.8779464049076	-261.8584723475711	1529.7838905763904	1839.8372767658448	-283.52233779140425	1360.0232292158669	1899.6357191240959	12.147190447753927	1256.0695896767133	1755.8851000460859	-65.64842851833077	1362.1577315482928	1710.5900241636336	-150.44913047929796	1497.2409357682018	1756.5683032104146	-125.89611363164282	1276.5446476877694	1784.0393525522186	5.000457853696502	1561.384997957401	1709.0446336457508	77.42324705286238	866.5798695216291	1730.6952833482087	191.448546298073	841.8204532019357	1676.599116155484	-26.999798809956065	748.7763157810597	1904.7061985514483	-207.3624380275937	966.2305869534925	1939.6923000962468	-96.53513965258058	264.6601553557431	2088.7717353469825	9.420303870093585	438.2540992516328	1981.6264067880086	204.8131093816338	449.9534641542858	1642.4059634761372	86.50083247986561	391.4320916776778	1668.483198125638	132.37644995155887	55.93727524949174	1441.0030563170435	162.81784362161906	60.90140168159494	1452.6968584188523	108.90548430924227	82.69384021963536	1518.0545672275848	152.04444231889852	93.16994371203437	1522.2353648754388	189.7812801814506	80.81791836865963	1528.7736043543819	-125.5801333606465	58.36347901884545	1926.482264841829	-98.7252357556686	89.90708125269258	2041.1404678003985	-136.51147920612175	56.091164174535976	1941.233693875788	-111.84406725758767	61.131015825759135	1909.0009762464208	-93.59759601867832	78.05396035262861	1971.1436084249779	-51.42083546580682	96.40465605803803	1987.1437815726802	
